 <svg version="1.0" xmlns="http://www.w3.org/2000/svg"  width="300.000000pt" height="291.000000pt" viewBox="0 0 300.000000 291.000000"  preserveAspectRatio="xMidYMid meet">  <g transform="translate(0.000000,291.000000) scale(0.100000,-0.100000)" fill="#000000" stroke="none"> <path d="M1025 2798 c3 -13 9 -44 15 -69 5 -25 12 -162 16 -305 6 -272 16 -348 55 -411 29 -46 18 -52 -28 -16 -21 17 -101 68 -178 114 -76 46 -165 108 -196 137 -31 28 -60 52 -64 52 -4 0 -4 -21 0 -47 29 -208 140 -412 299 -551 77 -68 213 -134 341 -167 156 -40 269 -76 285 -91 19 -18 9 -18 -95 1 -402 74 -618 96 -961 100 -160 2 -301 6 -313 10 -46 14 -17 -12 56 -50 41 -22 110 -63 152 -92 248 -170 345 -226 489 -283 151 -60 217 -73 347 -68 98 4 119 8 190 38 44 19 121 58 171 87 50 29 116 62 148 73 l57 19 140 -74 c141 -75 160 -88 337 -226 99 -77 129 -106 120 -114 -3 -3 -51 15 -108 40 -192 84 -385 126 -590 128 -142 2 -220 -6 -336 -33 -171 -40 -295 -100 -638 -309 -310 -189 -362 -214 -457 -219 -64 -3 -86 0 -140 22 -34 14 -64 24 -66 22 -5 -5 170 -150 236 -194 130 -88 371 -183 541 -213 44 -8 141 -14 235 -13 130 0 177 5 250 23 147 36 164 43 525 227 286 146 350 171 504 199 104 19 188 17 281 -7 45 -12 53 -18 86 -73 91 -153 121 -231 144 -383 6 -37 10 -43 28 -40 31 4 49 45 42 98 -9 71 -64 249 -97 315 -29 56 -57 101 -136 215 -17 25 -51 65 -76 90 -42 40 -58 70 -38 70 20 0 88 82 113 136 26 57 59 171 74 257 12 71 7 381 -9 502 -9 73 -40 214 -80 360 -67 249 -99 347 -160 477 -20 42 -42 105 -49 140 -13 60 -32 108 -43 108 -3 0 -2 -10 2 -22 3 -12 6 -65 6 -117 -1 -128 -52 -329 -136 -539 -100 -249 -133 -396 -143 -627 -6 -157 12 -296 48 -366 11 -22 19 -45 17 -50 -2 -6 -29 9 -60 33 -125 95 -167 121 -254 163 -76 37 -98 54 -132 98 -58 74 -77 124 -102 260 -54 303 -102 409 -314 697 -129 176 -151 205 -206 272 -80 97 -95 118 -119 166 -24 46 -34 54 -26 20z m121 -189 c118 -156 164 -222 159 -227 -3 -3 19 -30 47 -60 32 -34 48 -57 40 -60 -8 -2 5 -21 33 -48 25 -25 43 -49 40 -54 -7 -11 29 -74 72 -124 18 -21 30 -42 27 -47 -2 -4 5 -23 16 -41 33 -55 23 -55 -32 -1 -29 28 -100 85 -158 126 -154 110 -235 201 -285 321 -15 35 -15 38 -1 33 15 -6 15 -4 2 22 -9 16 -13 31 -10 33 3 3 0 17 -7 31 -7 15 -9 40 -5 62 6 32 9 35 24 23 11 -9 9 -3 -5 18 -21 29 -40 84 -30 84 2 0 36 -41 73 -91z m1403 -145 c12 -36 19 -69 16 -74 -4 -6 -1 -10 5 -10 6 0 9 -4 5 -9 -3 -5 -1 -12 5 -16 11 -7 50 -128 50 -157 0 -16 -5 -19 -25 -16 -14 3 -30 -1 -36 -8 -6 -8 -25 -14 -41 -14 -29 0 -29 0 -23 48 13 101 16 111 35 117 11 4 17 12 13 20 -3 8 -9 12 -14 10 -10 -7 -17 20 -23 90 -2 28 -5 55 -6 60 -1 6 -2 16 -1 23 2 27 20 -1 40 -64z m-64 26 c10 -31 2 -202 -10 -227 l-11 -21 -26 22 -26 21 26 113 c15 61 30 112 34 112 3 0 10 -9 13 -20z m-1377 -145 c17 -36 15 -41 -8 -20 -20 18 -27 45 -12 45 5 0 14 -11 20 -25z m74 -123 c29 -37 83 -86 148 -133 127 -91 225 -172 225 -185 0 -6 17 -25 38 -43 20 -18 37 -39 37 -47 0 -15 -12 -19 -24 -7 -3 4 -13 8 -21 9 -7 1 -33 15 -57 31 -42 29 -93 53 -73 35 6 -5 44 -32 86 -61 42 -29 85 -61 94 -72 30 -32 7 -34 -33 -3 -48 39 -132 85 -132 74 0 -5 13 -16 30 -25 40 -21 160 -134 160 -151 0 -19 -5 -18 -37 12 -33 31 -195 146 -273 194 -86 53 -230 180 -230 203 0 4 6 7 13 6 39 -5 39 5 -3 40 -25 22 -42 43 -37 47 4 4 16 -2 27 -14 31 -33 45 -27 20 8 -13 19 -17 30 -9 30 8 0 6 6 -4 18 -10 10 -17 27 -17 38 0 11 -7 29 -15 40 -8 10 -15 25 -15 32 0 26 55 -16 102 -76z m1259 22 l24 -26 -25 7 -25 7 28 -21 c21 -18 27 -31 27 -61 0 -51 -13 -57 -40 -20 -36 50 -41 34 -6 -18 26 -39 31 -56 28 -85 -3 -23 -10 -37 -18 -37 -8 0 -14 6 -14 13 0 8 -10 22 -22 33 -23 19 -23 19 -5 -2 29 -34 19 -40 -15 -8 -18 16 -27 22 -20 14 18 -21 15 -32 -8 -25 -29 9 -25 -4 5 -15 14 -5 30 -21 37 -35 6 -14 18 -25 25 -25 10 0 13 -11 11 -37 -4 -44 -19 -45 -33 -3 -5 16 -16 34 -22 40 -10 7 -10 7 -3 -2 21 -25 9 -30 -17 -7 -15 13 -21 16 -14 6 8 -9 12 -19 10 -21 -7 -5 -69 24 -69 32 0 5 18 53 41 108 22 54 45 113 50 131 5 18 14 35 19 38 6 4 10 15 10 26 0 26 12 24 41 -7z m-1676 -74 c29 -22 69 -48 88 -59 19 -10 45 -25 58 -33 53 -30 60 -39 44 -61 -8 -12 -15 -35 -14 -52 1 -27 2 -25 13 14 6 25 17 46 24 49 19 6 64 -27 58 -44 -3 -8 1 -14 9 -14 8 0 15 -4 15 -10 0 -5 6 -7 13 -4 7 2 45 -23 86 -58 64 -54 72 -64 66 -87 -4 -14 -9 -43 -12 -63 -3 -21 -7 -38 -9 -38 -20 0 -64 48 -65 69 0 24 -1 24 -9 6 -5 -11 -9 -14 -9 -7 -1 6 -10 12 -20 12 -10 0 -21 7 -25 15 -3 8 -12 15 -19 15 -8 0 -19 11 -25 25 -6 14 -15 24 -19 23 -14 -2 -43 14 -43 24 0 12 -26 38 -38 38 -9 0 -33 25 -84 89 -10 12 -18 26 -18 31 0 6 -6 10 -12 10 -20 1 -132 150 -113 150 3 0 30 -18 60 -40z m-35 -52 c24 -40 53 -82 64 -93 12 -11 27 -32 33 -47 7 -16 17 -28 23 -28 6 0 34 -22 62 -50 28 -27 52 -50 53 -50 2 0 23 -19 48 -42 24 -24 53 -48 63 -55 17 -10 17 -13 4 -23 -12 -9 -10 -11 12 -7 16 2 33 -2 39 -9 6 -8 18 -14 25 -14 8 0 14 -4 14 -10 0 -5 7 -10 15 -10 9 0 18 -7 21 -15 4 -8 11 -15 18 -15 12 0 19 -4 141 -69 44 -24 84 -48 90 -52 14 -13 -23 -11 -48 3 -12 6 -29 13 -37 14 -219 38 -379 125 -495 269 -21 28 -42 52 -46 55 -31 24 -131 223 -149 297 -11 46 1 34 50 -49z m1902 40 c22 -17 37 -95 17 -83 -12 8 -12 6 0 -8 14 -18 6 -18 -77 -1 -14 3 -38 -4 -59 -17 l-35 -22 7 34 c4 19 10 39 13 44 4 6 7 17 7 25 0 9 12 16 30 18 17 2 34 8 40 13 13 13 38 11 57 -3z m-87 -118 c-4 -6 4 -6 22 1 38 14 89 3 108 -24 27 -38 20 -47 -33 -40 -40 4 -57 1 -92 -19 -24 -13 -50 -35 -59 -48 -15 -23 -13 -22 24 6 22 17 51 35 65 39 32 11 92 7 105 -6 7 -7 4 -10 -10 -9 -30 3 -45 1 -45 -7 0 -5 16 -8 36 -8 36 0 37 -1 51 -58 8 -32 13 -61 10 -64 -3 -3 -18 4 -33 16 -15 11 -38 20 -53 20 -21 -1 -22 -2 -6 -6 42 -10 34 -20 -17 -20 -38 1 -65 -5 -95 -23 -24 -13 -43 -27 -43 -32 0 -12 6 -10 47 18 29 20 46 24 72 20 40 -6 90 -39 122 -80 l22 -27 -50 30 c-74 45 -151 47 -199 4 -17 -16 -23 -23 -15 -17 75 50 164 43 244 -20 18 -14 43 -93 33 -103 -2 -3 -23 8 -46 23 -31 21 -51 27 -87 25 -63 -2 -115 -19 -149 -47 -28 -24 -27 -24 20 2 32 17 71 28 111 32 55 4 64 2 91 -21 l29 -26 -49 14 c-55 17 -90 19 -82 7 3 -5 -20 -19 -50 -32 -30 -13 -71 -41 -91 -62 -50 -51 -34 -48 28 4 27 24 63 48 81 55 64 23 166 11 190 -22 4 -5 8 -30 8 -54 0 -40 -1 -43 -22 -36 -95 31 -189 5 -265 -71 -29 -29 -53 -58 -53 -64 0 -6 24 14 54 43 77 78 187 109 256 74 27 -14 28 -26 16 -194 -6 -70 -56 -244 -79 -271 -6 -8 -16 -23 -22 -34 -5 -12 -28 -36 -51 -54 l-40 -33 -48 44 c-51 46 -54 59 -32 145 6 25 6 25 -5 3 -7 -13 -15 -23 -19 -23 -14 0 -21 50 -10 70 5 10 10 34 10 52 0 19 6 42 13 53 8 11 17 29 20 40 5 14 0 11 -18 -10 -13 -16 -27 -42 -31 -57 -3 -16 -9 -28 -14 -28 -14 0 -21 35 -23 114 -1 74 -1 75 42 125 23 28 38 51 32 51 -6 0 -23 -16 -38 -35 -37 -46 -47 -44 -39 8 4 23 7 57 6 75 -1 55 19 111 57 153 19 21 31 39 25 39 -6 0 -19 -11 -30 -25 -27 -34 -35 -31 -28 8 3 17 8 57 11 87 4 46 11 60 42 92 36 37 37 54 1 21 -10 -9 -20 -14 -22 -12 -3 2 -1 34 4 71 6 54 14 74 41 107 30 36 60 57 44 31z m-1339 -111 c10 -12 84 -65 164 -119 103 -69 162 -116 203 -163 31 -36 57 -69 57 -74 0 -5 14 -25 30 -43 17 -18 30 -37 30 -42 0 -4 0 -10 0 -13 0 -2 12 -17 25 -31 14 -15 25 -31 25 -37 0 -5 8 -16 17 -23 39 -28 1 -24 -64 7 -43 20 -86 51 -115 82 -53 55 -63 79 -22 52 14 -9 28 -15 30 -12 3 3 -19 18 -49 35 -37 21 -64 46 -86 81 -18 28 -36 51 -40 51 -4 0 -25 24 -46 53 -22 28 -64 77 -95 107 -79 80 -105 110 -93 110 5 0 18 -10 29 -21z m1112 -26 c56 -35 92 -76 92 -106 l0 -30 -35 36 c-25 26 -44 37 -63 36 l-27 -1 30 -10 c61 -21 77 -53 22 -43 -27 5 -39 2 -58 -17 -14 -13 -18 -17 -9 -10 26 19 76 14 106 -11 26 -23 27 -24 15 -88 -6 -36 -11 -82 -11 -102 0 -20 -3 -37 -7 -37 -4 0 -20 12 -37 28 l-30 27 32 -38 c32 -38 40 -57 23 -57 -5 0 -12 9 -16 19 -7 22 -79 91 -95 91 -18 0 -10 -18 18 -39 l27 -20 -42 -1 c-28 0 -43 5 -44 13 -3 36 4 107 13 142 5 22 11 52 13 66 9 77 34 169 46 169 5 0 22 -8 37 -17z m-1058 -130 c0 -20 4 -24 20 -20 14 4 25 -4 40 -28 11 -18 27 -35 35 -38 18 -7 97 -108 90 -115 -3 -3 -18 4 -33 15 -15 11 -65 39 -111 63 l-83 43 7 50 c3 28 8 55 11 59 9 15 24 -3 24 -29z m1479 -28 c0 -17 -3 -23 -6 -15 -4 8 -17 30 -31 48 l-25 33 31 -18 c25 -14 32 -24 31 -48z m-1959 -230 c58 -4 127 -11 154 -16 28 -5 75 -12 105 -14 31 -3 70 -10 86 -14 17 -5 57 -12 90 -16 33 -4 70 -13 81 -20 13 -8 25 -10 31 -4 11 11 133 -9 133 -22 0 -4 7 -6 15 -3 8 4 15 1 15 -6 0 -9 3 -10 13 -1 8 6 17 8 20 4 4 -3 19 -8 34 -9 16 -2 60 -13 98 -25 39 -12 76 -23 83 -25 6 -2 12 -8 12 -14 0 -7 -29 -10 -77 -10 -43 1 -90 -2 -106 -5 -22 -4 -29 -1 -37 17 l-9 23 0 -22 c-1 -27 -18 -38 -35 -24 -10 9 -15 7 -20 -5 -8 -21 -23 -8 -29 26 -4 21 -4 20 -6 -7 0 -18 -5 -33 -9 -33 -9 0 -32 67 -32 94 0 9 -4 16 -10 16 -5 0 -10 -5 -10 -11 0 -6 -7 -8 -17 -5 -17 7 -33 -9 -33 -32 0 -10 8 -12 28 -7 24 5 30 2 40 -20 7 -15 10 -31 7 -36 -4 -5 -35 -9 -70 -9 l-63 0 -7 65 c-7 61 -16 78 -30 55 -4 -7 -12 -7 -24 0 -22 11 -31 4 -31 -26 0 -27 17 -41 33 -25 6 6 14 11 19 11 9 0 29 -70 22 -81 -2 -5 -33 -6 -67 -4 -74 5 -81 12 -98 108 -7 39 -15 64 -17 56 -9 -29 -24 -40 -38 -28 -12 9 -13 6 -8 -22 8 -42 13 -47 24 -29 6 10 12 11 18 5 14 -15 25 -85 13 -85 -22 0 -41 13 -41 29 0 14 -2 14 -10 1 -5 -8 -10 -11 -10 -6 0 5 -6 3 -13 -3 -8 -6 -16 -8 -19 -5 -3 3 -20 7 -38 9 -18 3 -43 11 -56 19 -17 12 -24 12 -27 3 -3 -7 -9 -1 -15 13 -8 18 -11 20 -11 8 -1 -19 -27 -24 -48 -10 -6 4 -26 39 -44 77 -21 45 -34 64 -36 52 -3 -9 7 -38 21 -63 14 -26 26 -48 26 -49 0 -8 -64 3 -67 12 -2 5 -11 19 -19 29 -9 10 -13 13 -9 7 3 -7 2 -13 -2 -13 -5 0 -15 6 -23 13 -12 10 -12 9 -2 -5 19 -25 -2 -31 -30 -8 -14 11 -28 17 -31 14 -3 -4 -26 3 -50 15 -24 11 -52 21 -62 21 -21 0 -175 70 -175 79 0 8 358 5 500 -4z m1523 -30 c36 -35 46 -55 28 -55 -5 0 -14 6 -20 14 -6 8 -21 16 -33 19 -13 4 1 -13 36 -44 31 -28 53 -55 50 -61 -4 -5 -20 3 -38 21 -28 27 -84 56 -92 48 -2 -1 18 -14 43 -28 28 -14 56 -39 67 -59 l20 -35 -37 32 c-45 39 -97 68 -97 53 0 -5 6 -10 14 -10 8 0 36 -21 63 -46 35 -33 40 -41 18 -28 -53 32 -86 46 -92 40 -3 -3 14 -15 38 -26 59 -27 103 -65 94 -80 -5 -8 -14 -5 -31 11 -13 12 -24 17 -24 11 0 -6 8 -17 18 -24 30 -21 53 -64 46 -82 -7 -18 -27 -18 -68 -1 -14 6 -17 5 -12 -3 4 -7 25 -15 47 -18 36 -6 40 -10 49 -48 6 -22 18 -60 26 -84 9 -23 14 -47 12 -52 -5 -16 -81 44 -121 96 -45 58 -46 69 -6 49 l30 -16 -16 24 c-8 13 -26 29 -40 35 -14 6 -25 19 -25 28 0 14 3 14 18 3 9 -7 3 1 -14 18 -21 19 -34 44 -38 69 -9 58 -17 244 -10 255 13 21 62 8 97 -26z m-1760 -101 c26 -9 47 -22 47 -29 0 -31 -35 -23 -85 19 -35 30 -26 32 38 10z m135 -47 c23 -7 40 -16 36 -20 -4 -4 7 -4 24 -1 17 4 39 3 49 -1 10 -4 29 -9 43 -11 53 -8 85 -22 82 -35 -3 -11 -1 -12 9 -1 19 18 31 15 24 -8 -7 -23 7 -27 25 -5 8 9 24 13 48 10 20 -3 53 -6 72 -7 25 -2 34 -7 32 -18 -3 -12 -1 -13 9 -2 23 22 40 14 33 -15 l-6 -28 14 25 c7 14 24 26 36 28 26 4 26 4 7 -41 -8 -20 -15 -51 -14 -69 1 -29 3 -27 14 17 16 68 32 95 55 95 28 0 25 -14 -10 -47 -21 -19 -30 -37 -29 -58 0 -16 3 -24 6 -16 5 11 7 11 14 0 6 -10 9 -8 9 9 0 30 48 112 65 112 8 0 11 -8 8 -20 -4 -16 -2 -19 13 -14 11 4 27 16 36 28 14 17 20 18 27 7 7 -10 10 -10 13 -1 2 7 19 14 37 16 27 3 31 2 22 -9 -17 -21 -42 -87 -33 -87 5 0 15 18 22 40 18 54 37 69 96 74 27 3 77 8 112 12 39 4 62 3 62 -3 0 -13 -70 -36 -95 -31 -12 2 -19 -2 -18 -9 3 -11 -92 -83 -109 -83 -3 0 -8 10 -11 23 -4 23 -7 18 -21 -27 -6 -19 -88 -55 -151 -67 -78 -14 -184 -18 -191 -8 -3 5 -15 7 -27 4 -25 -6 -71 15 -73 33 -1 7 -2 21 -3 33 0 12 -6 17 -12 13 -6 -3 -8 -17 -5 -30 5 -20 3 -24 -18 -24 -28 0 -43 16 -48 50 -2 17 -10 26 -25 28 -23 3 -31 -12 -13 -23 19 -12 10 -26 -12 -20 -46 13 -168 74 -168 84 0 6 6 8 14 5 8 -3 17 -1 21 5 10 17 -21 24 -44 11 -18 -9 -32 -5 -81 21 -72 38 -77 56 -20 68 3 0 24 -5 48 -12z m1138 -341 c139 -11 313 -55 455 -115 70 -30 76 -35 86 -71 5 -22 9 -41 7 -42 -1 -2 -23 -2 -47 0 -41 4 -46 7 -66 48 -12 24 -27 44 -33 44 -5 0 2 -20 16 -45 l27 -45 -40 0 c-44 0 -69 26 -96 97 -9 26 -14 32 -15 18 -4 -35 1 -49 27 -77 31 -32 23 -48 -24 -48 -43 0 -87 30 -114 78 -19 35 -21 22 -4 -23 7 -18 5 -17 -21 5 l-29 25 29 -32 c16 -18 32 -32 35 -31 11 2 41 -14 41 -22 0 -4 -10 -10 -22 -14 -18 -4 -33 4 -66 37 -50 47 -122 141 -122 157 0 5 -5 10 -10 10 -20 0 23 -65 87 -131 34 -36 63 -68 63 -71 0 -3 -16 -9 -36 -13 -20 -3 -44 -10 -53 -15 -41 -21 -126 -50 -148 -50 -29 0 -105 68 -135 121 -12 21 -25 36 -29 33 -13 -8 49 -101 94 -139 22 -19 39 -37 36 -39 -2 -2 -28 -11 -56 -20 -29 -10 -55 -22 -58 -27 -4 -5 -19 -9 -36 -9 -16 0 -29 -3 -29 -8 0 -4 -14 -13 -31 -21 -27 -12 -38 -11 -97 8 -37 13 -87 37 -112 55 -65 46 -78 53 -55 27 28 -32 147 -101 174 -101 34 0 20 -22 -24 -37 -33 -11 -40 -11 -47 0 -4 8 -49 56 -100 108 -63 64 -102 113 -121 152 -16 33 -31 57 -33 54 -6 -6 35 -95 47 -103 5 -3 9 -10 9 -16 0 -17 -51 34 -61 61 -5 13 -12 21 -16 18 -11 -12 29 -62 120 -149 50 -48 89 -89 87 -92 -3 -2 -38 18 -77 45 -40 27 -73 44 -73 39 0 -11 54 -47 143 -95 32 -18 59 -36 60 -41 1 -4 -15 -13 -36 -19 -39 -11 -39 -11 -104 52 -36 35 -69 63 -74 63 -14 0 -109 91 -109 104 -1 16 -40 63 -40 48 0 -8 -5 -10 -12 -6 -19 12 28 -63 75 -118 23 -27 68 -75 99 -106 50 -49 55 -57 40 -68 -42 -30 -168 58 -278 194 -14 17 -31 32 -37 32 -6 0 0 -12 14 -28 39 -44 68 -88 89 -139 17 -40 19 -42 14 -15 l-6 33 46 -35 c25 -19 55 -37 66 -41 17 -5 29 -25 16 -25 -2 0 -40 -7 -83 -15 -120 -23 -124 -22 -187 41 -31 31 -56 50 -56 43 0 -7 23 -35 51 -61 l51 -48 -37 0 c-30 0 -47 9 -87 45 -28 25 -54 43 -57 39 -3 -3 13 -23 37 -43 23 -20 42 -40 42 -44 0 -4 -18 -7 -39 -7 -35 0 -44 6 -84 52 -24 29 -52 69 -61 88 -16 34 -16 35 6 52 31 23 46 22 68 -4 10 -13 22 -20 26 -16 4 5 0 16 -9 26 -21 23 -22 39 -2 39 9 0 15 -10 15 -24 0 -12 4 -23 9 -23 5 0 8 14 7 31 -2 30 15 59 34 59 14 0 23 -21 22 -51 0 -16 4 -32 10 -35 7 -4 8 -2 4 4 -4 7 -3 12 2 12 10 0 49 -43 81 -90 21 -31 18 -29 -28 15 -28 27 -51 44 -51 38 0 -13 87 -96 119 -113 l23 -12 -18 31 c-10 18 -37 53 -59 79 -23 26 -52 64 -65 86 l-23 39 24 18 c13 11 39 28 57 39 l32 19 15 -32 14 -32 -6 43 c-4 29 -2 42 6 42 7 0 31 13 54 28 23 16 58 37 77 46 19 10 62 32 94 48 87 44 180 77 276 99 47 10 90 19 97 19 7 0 17 -18 23 -40 14 -53 23 -51 15 5 l-7 44 73 3 c81 3 117 2 225 -6z m717 -177 c13 0 134 -142 200 -234 43 -60 77 -124 77 -144 0 -6 5 -11 11 -11 5 0 8 -4 4 -9 -3 -5 -1 -12 4 -15 13 -8 32 -66 22 -66 -5 0 -16 15 -26 33 -29 57 -41 76 -58 95 -10 10 -15 21 -12 24 3 3 -13 22 -35 42 -23 21 -43 47 -45 58 -6 28 -44 68 -66 68 -10 0 -22 6 -26 13 -12 21 -150 89 -182 91 -17 1 -47 66 -31 66 13 0 40 -15 103 -58 27 -19 51 -31 54 -29 9 10 -27 52 -64 76 -34 20 -38 27 -35 56 l4 32 45 -43 c25 -24 50 -44 56 -45z m-263 -85 c0 -4 -13 -22 -30 -41 -48 -54 -35 -60 20 -9 39 36 56 46 84 46 19 0 36 -4 38 -10 2 -5 25 -11 53 -14 27 -2 51 -9 53 -15 2 -6 12 -11 23 -11 20 0 26 -15 9 -25 -5 -3 -10 -12 -10 -18 0 -7 5 -4 11 6 10 17 49 24 49 9 0 -5 15 -16 34 -25 39 -18 67 -57 42 -57 -8 0 -27 5 -43 11 -37 15 -149 13 -252 -6 -46 -8 -87 -12 -92 -10 -4 3 -10 1 -13 -4 -4 -5 -23 -15 -44 -22 -20 -6 -64 -24 -97 -39 -33 -15 -89 -40 -125 -55 -36 -16 -77 -37 -92 -47 -39 -27 -55 -22 -69 20 -9 25 -14 31 -17 19 -2 -10 3 -29 12 -42 17 -26 15 -29 -49 -60 -22 -11 -61 -32 -88 -47 -52 -30 -82 -35 -90 -15 -3 6 -6 2 -6 -11 -1 -17 -14 -28 -57 -47 -31 -14 -64 -25 -73 -25 -9 0 -25 -7 -35 -15 -29 -22 -42 -19 -66 18 -12 17 -19 23 -15 12 19 -53 19 -52 -35 -64 -61 -13 -73 -7 -91 46 -11 36 -8 141 6 176 4 9 3 17 -3 17 -12 0 -32 -85 -32 -133 0 -18 9 -50 20 -72 11 -21 17 -41 14 -44 -11 -12 -309 -4 -354 8 -25 7 -59 15 -77 17 -17 2 -44 9 -60 16 -15 6 -34 12 -42 14 -112 22 -471 207 -448 230 3 3 43 -8 88 -24 79 -28 181 -49 258 -55 l33 -2 -21 -27 c-31 -38 -26 -46 9 -13 33 32 39 28 14 -10 -10 -16 -12 -25 -5 -25 6 0 15 10 20 23 13 34 36 49 81 52 22 2 40 2 40 0 0 -2 -11 -23 -25 -46 -14 -24 -25 -53 -25 -64 0 -12 10 1 24 30 40 84 44 87 127 92 41 2 88 6 104 9 17 3 26 2 20 -3 -16 -13 -89 -162 -83 -168 3 -4 9 4 13 17 4 13 18 37 31 55 13 17 24 34 24 38 0 3 11 23 25 45 18 29 32 40 50 40 29 0 30 -3 9 -35 -19 -29 -47 -118 -35 -110 5 3 17 28 27 56 19 53 55 98 39 49 -25 -77 -33 -156 -15 -145 6 3 10 20 10 36 0 56 22 120 53 150 18 19 33 27 39 21 6 -6 28 0 59 15 27 14 56 22 64 19 8 -3 17 -1 20 4 4 6 10 10 15 10 5 0 -1 -19 -14 -43 -14 -24 -27 -60 -31 -80 -4 -20 -11 -40 -16 -43 -5 -3 -9 -2 -9 1 0 18 24 101 31 109 5 6 9 15 9 20 0 6 -9 -3 -20 -20 -24 -37 -35 -109 -25 -161 7 -37 8 -37 31 52 27 100 48 146 81 177 30 28 42 15 20 -21 -24 -41 -38 -81 -28 -81 5 0 11 10 15 23 13 51 86 140 103 124 2 -2 -15 -35 -37 -73 -35 -60 -40 -76 -40 -129 1 -36 7 -70 16 -85 9 -14 13 -17 10 -7 -23 72 -17 167 9 167 8 0 15 6 15 13 0 21 59 137 70 137 12 0 13 -27 1 -35 -17 -10 -41 -99 -42 -156 -2 -64 6 -96 24 -96 8 0 12 24 12 81 0 80 19 189 38 214 5 6 19 12 30 12 11 0 25 7 31 14 6 8 24 18 39 22 l28 6 -26 -37 c-14 -21 -30 -56 -37 -79 -19 -67 -31 -68 -25 -1 4 39 3 54 -3 45 -14 -22 -12 -103 3 -124 12 -16 14 -14 26 25 37 122 100 194 204 233 69 26 78 24 52 -10 -8 -10 -14 -26 -15 -34 0 -8 6 -4 13 10 33 62 41 69 74 68 18 -1 39 4 46 11 8 6 19 11 23 10 5 -1 22 3 38 10 42 17 55 -2 19 -27 -37 -26 -80 -88 -88 -127 -6 -25 -2 -21 23 20 33 55 102 127 102 106 0 -7 -11 -27 -26 -43 -31 -38 -74 -121 -74 -145 0 -10 18 18 40 62 54 106 97 156 140 161 31 4 32 3 18 -14 -27 -30 -65 -106 -72 -142 -5 -31 -5 -32 5 -10 53 123 91 180 120 180 10 0 19 -3 19 -6z m-1120 -196 c70 -60 86 -83 58 -83 -7 0 -53 42 -103 94 -94 99 -81 95 45 -11z m-596 -10 c3 -7 7 -26 11 -43 4 -16 26 -49 51 -72 47 -45 46 -54 -1 -46 -16 2 -48 4 -70 3 -61 -1 -265 46 -265 62 0 4 17 10 38 13 44 7 181 62 202 82 18 16 29 17 34 1z m933 -220 c-2 -18 -4 -6 -4 27 0 33 2 48 4 33 2 -15 2 -42 0 -60z"/> <path d="M1210 2404 c0 -13 85 -93 130 -123 39 -27 34 -21 -67 74 -35 32 -63 54 -63 49z"/> <path d="M1190 2332 c0 -14 87 -90 125 -109 34 -17 34 -17 -57 61 -38 32 -68 54 -68 48z"/> <path d="M1225 2050 c-10 -16 5 -31 25 -25 12 4 31 -3 50 -16 16 -13 33 -20 36 -16 4 4 -2 10 -12 14 -10 3 -33 17 -50 30 -35 26 -40 27 -49 13z"/> <path d="M1256 1986 c6 -13 114 -70 114 -59 0 5 -27 22 -59 39 -33 18 -57 27 -55 20z"/> <path d="M2628 1400 c59 -7 97 -20 57 -20 -25 0 -14 -9 22 -19 27 -8 30 -7 26 9 -7 25 -54 40 -117 39 l-51 -2 63 -7z"/> <path d="M2679 1330 c61 -34 61 -34 61 -20 0 12 -45 35 -85 44 -23 5 -17 -1 24 -24z"/> <path d="M2628 1263 c18 -2 45 -2 60 0 15 2 0 4 -33 4 -33 0 -45 -2 -27 -4z"/> <path d="M2629 1107 c-40 -18 -119 -87 -119 -104 0 -9 16 -1 45 25 48 42 102 72 130 72 9 0 13 5 10 10 -8 13 -33 12 -66 -3z"/> <path d="M2660 1073 c-24 -9 -124 -79 -139 -97 -24 -29 0 -17 49 24 26 22 50 40 54 40 3 0 20 9 38 20 31 19 30 25 -2 13z"/> <path d="M2605 971 c-16 -10 -41 -31 -55 -47 l-25 -29 27 24 c15 13 44 34 65 47 21 13 34 23 28 24 -5 0 -23 -8 -40 -19z"/> <path d="M847 1433 c-10 -15 4 -53 19 -53 8 0 14 6 14 13 0 20 -26 52 -33 40z"/> <path d="M2275 1195 c17 -13 39 -26 50 -29 15 -4 13 1 -9 19 -16 13 -39 26 -50 29 -16 4 -14 0 9 -19z"/> <path d="M1640 971 c0 -35 69 -148 116 -191 35 -32 22 -9 -31 55 -23 28 -50 71 -60 98 -17 45 -25 57 -25 38z"/> <path d="M1741 951 c-2 -30 44 -108 93 -158 74 -78 78 -64 4 16 -34 37 -71 88 -80 112 -9 24 -17 38 -17 30z"/> <path d="M1780 951 c0 -34 127 -191 154 -191 6 0 -15 26 -46 58 -31 31 -68 77 -82 102 -14 25 -26 39 -26 31z"/> <path d="M1566 930 c11 -45 35 -87 61 -111 26 -24 23 -10 -4 22 -7 9 -25 38 -38 65 -14 27 -23 38 -19 24z"/> <path d="M1620 891 c17 -32 58 -85 89 -116 92 -91 104 -86 15 6 -44 46 -89 103 -100 126 -10 23 -23 43 -27 43 -5 0 6 -26 23 -59z"/> <path d="M1880 933 c0 -5 16 -27 35 -49 20 -21 30 -29 23 -16 -7 12 -16 22 -20 22 -5 0 -8 6 -8 14 0 7 -7 19 -15 26 -8 7 -15 8 -15 3z"/> <path d="M1420 922 c0 -8 15 -37 34 -65 38 -57 96 -117 96 -99 0 6 -6 15 -13 19 -18 11 -81 92 -100 128 -9 17 -16 24 -17 17z"/> <path d="M2011 904 c-1 -17 27 -82 39 -89 5 -3 10 -5 10 -2 0 10 -49 100 -49 91z"/> <path d="M1390 865 c0 -10 64 -76 84 -87 11 -6 -1 13 -29 41 -48 50 -55 56 -55 46z"/> <path d="M1177 841 c5 -20 60 -78 67 -70 2 2 -13 23 -34 47 -23 26 -36 35 -33 23z"/> <path d="M1294 771 c21 -17 58 -40 83 -52 30 -15 41 -24 32 -29 -8 -6 3 -16 34 -30 26 -12 50 -26 53 -31 8 -13 -90 27 -163 66 -35 19 -63 31 -63 27 0 -11 124 -75 185 -97 28 -10 55 -22 61 -27 11 -8 24 -1 24 14 0 4 -25 22 -55 39 -30 17 -55 33 -55 35 0 6 99 -35 125 -52 14 -9 25 -12 25 -7 0 5 -10 14 -22 20 -13 6 -63 30 -113 53 -49 24 -106 56 -126 71 -20 16 -42 29 -49 29 -7 0 4 -13 24 -29z"/> <path d="M1412 750 c2 -6 33 -23 68 -37 36 -14 82 -38 103 -55 20 -16 37 -25 37 -19 0 18 -60 60 -117 80 -32 12 -66 26 -77 32 -13 8 -17 7 -14 -1z"/> <path d="M901 705 c-1 -32 44 -117 75 -146 16 -14 43 -34 59 -44 l30 -18 -24 26 c-13 15 -32 29 -41 32 -23 7 -64 69 -84 126 -8 24 -15 35 -15 24z"/> <path d="M1031 562 c85 -90 107 -108 118 -96 3 4 -1 9 -9 11 -8 3 -52 43 -98 89 -45 46 -85 84 -89 84 -4 0 31 -40 78 -88z"/> <path d="M790 636 c0 -12 34 -61 78 -110 24 -28 50 -63 58 -79 25 -48 27 -23 3 35 -24 58 -97 163 -107 154 -3 -4 6 -19 19 -34 14 -15 34 -40 44 -57 l18 -30 -28 25 c-15 14 -41 43 -56 64 -16 21 -29 36 -29 32z"/> <path d="M2131 673 c-29 -35 -57 -119 -49 -145 3 -7 11 12 18 42 7 30 25 74 41 98 35 52 31 54 -10 5z"/> <path d="M2335 690 c-22 -8 -57 -53 -68 -85 -7 -20 -7 -20 8 0 9 11 32 37 51 58 20 20 35 37 33 36 -2 0 -13 -4 -24 -9z"/> <path d="M2376 670 c-16 -10 -38 -34 -49 -52 -18 -29 -15 -27 31 17 65 62 67 67 18 35z"/> <path d="M1922 668 c-31 -39 -65 -125 -68 -171 l-4 -52 13 57 c7 31 27 84 45 117 31 59 35 75 14 49z"/> <path d="M1919 593 c-11 -25 -18 -51 -16 -57 2 -6 9 6 16 27 8 22 17 34 23 31 6 -4 8 -2 4 4 -3 5 0 13 6 15 10 4 10 6 0 6 -7 1 -10 6 -7 11 3 6 4 10 0 10 -3 0 -15 -21 -26 -47z"/> <path d="M1780 610 c0 -5 -7 -7 -15 -4 -8 4 -15 1 -15 -6 0 -6 5 -8 12 -4 8 5 9 2 3 -12 -39 -92 -68 -234 -47 -234 5 0 12 31 14 69 4 48 14 89 36 135 17 36 27 66 21 66 -5 0 -9 -4 -9 -10z"/> <path d="M1921 533 c-6 -21 -10 -51 -10 -68 1 -18 6 -4 14 35 14 73 12 92 -4 33z"/> <path d="M1886 489 c-8 -39 -8 -54 0 -46 10 10 22 77 14 77 -4 0 -10 -14 -14 -31z"/> <path d="M1141 349 c-21 -34 -30 -67 -10 -39 7 11 8 -1 4 -40 -3 -30 -2 -68 3 -85 7 -24 9 -13 10 50 0 44 5 93 11 109 16 41 6 44 -18 5z"/> <path d="M1424 302 c2 -40 8 -78 14 -84 8 -8 9 -5 6 8 -3 10 -9 48 -14 84 l-9 65 3 -73z"/> <path d="M831 294 c-22 -28 -37 -84 -28 -106 3 -7 6 2 6 20 1 21 6 32 16 32 13 0 20 19 16 43 -1 5 2 6 7 3 4 -2 13 4 20 15 19 30 -12 25 -37 -7z"/> <path d="M511 451 c6 -16 18 -36 28 -45 16 -15 16 -11 -3 28 -24 50 -40 62 -25 17z"/> </g> </svg> 