 <svg version="1.0" xmlns="http://www.w3.org/2000/svg"  
 width="300.000000pt" 
 height="86.000000pt" 
 viewBox="0 0 300.000000 86.000000"  
 preserveAspectRatio="xMidYMid meet">  
<g transform="translate(0.000000,86.000000) scale(0.100000,-0.100000)" fill="#000000" stroke="none">
<path d="M345 735 c-4 -24 -5 -62 -3 -85 2 -22 1 -40 -1 -40 -3 0 -26 18 -53 41 l-48 40 0 -28 c1 -37 31 
-103 63 -131 13 -13 51 -34 83 -47 73 -30 66 -31 -37 -4 -75 19 -229 40 -238 33 -11 -10 13 -16 72 -19 64 
-3 249 -40 277 -56 11 -6 6 -8 -16 -9 -16 0 -36 6 -43 13 -10 10 -11 8 -5 -6 6 -15 2 -17 -27 -12 -61 11 
-119 27 -119 34 0 4 -11 8 -26 9 -14 1 -34 7 -45 13 -12 6 -23 8 -26 6 -6 -6 91 -79 134 -101 43 -22 119 
-20 172 4 l43 20 36 -22 c53 -33 103 -79 96 -89 -3 -5 2 -12 10 -15 9 -3 16 -10 16 -16 0 -5 -4 -7 -9 -3 
-19 11 -106 23 -116 16 -27 -21 -60 -20 -78 2 l-18 22 11 -23 c14 -29 11 -33 -33 -35 -19 -1 -33 -5 -30 -9 
2 -5 1 -8 -4 -8 -4 0 -19 16 -32 35 -13 20 -26 33 -29 31 -2 -3 5 -18 17 -34 12 -17 21 -33 21 -36 0 -13 -49 
0 -68 17 -17 16 -20 16 -32 2 -11 -13 -9 -15 10 -13 13 2 25 -3 28 -10 3 -10 -7 -13 -39 -11 -24 1 -50 7 -56 
12 -18 13 -16 37 2 37 8 0 15 4 15 9 0 5 12 13 27 18 23 8 31 5 51 -16 l24 -26 -16 25 c-22 34 -21 35 27 53 
62 23 165 21 233 -4 70 -26 82 -19 15 9 -110 48 -211 37 -363 -39 -67 -34 -89 -40 -121 -36 l-39 5 28 -29 
c47 -49 144 -91 221 -96 61 -5 78 -1 163 32 106 41 172 56 211 48 30 -6 59 -57 59 -104 0 -20 4 -29 13 -26 
27 10 -5 128 -50 179 -13 14 -13 17 0 25 8 4 23 24 33 43 26 48 26 238 0 325 -9 33 -21 74 -25 90 l-7 30 -8 
-40 c-4 -22 -26 -80 -49 -130 -37 -80 -41 -98 -42 -166 l0 -77 -44 32 c-57 40 -67 59 -75 131 -3 33 -17 81 
-30 107 -32 61 -89 148 -98 148 -4 0 -10 -20 -13 -45z m71 -63 c23 -42 39 -82 37 -89 -2 -6 1 -14 7 -18 8 -5 
8 -11 -1 -21 -9 -11 -18 -8 -54 22 l-44 35 1 75 c0 41 3 74 6 74 4 0 26 -35 48 -78z m274 -51 c-6 -23 -15 -41 
-21 -41 -6 0 -7 -4 -4 -10 3 -5 2 -10 -2 -10 -5 0 -7 -16 -5 -35 6 -50 -4 -71 -24 -54 -19 16 -14 40 29 136 34 
77 46 82 27 14z m-307 -75 c30 -36 34 -45 21 -50 -30 -12 -104 44 -131 99 -12 25 -7 22 29 -17 24 -25 57 -54 73 
-64 18 -11 3 9 -37 48 -38 36 -68 71 -68 78 0 17 70 -41 113 -94z m347 75 c0 -16 3 -37 7 -47 5 -13 3 -15 -8 -9 
-11 6 -12 5 -1 -6 18 -19 15 -29 -9 -29 -21 0 -20 -1 5 -21 34 -27 33 -40 -4 -32 -19 3 -30 1 -30 -6 0 -6 11 -11 
23 -11 33 0 39 -10 22 -36 -8 -13 -11 -25 -6 -28 13 -8 -8 -72 -30 -92 -25 -22 -42 -8 -37 32 2 19 0 35 -5 37 -20 
6 13 45 44 51 18 3 29 9 26 12 -3 4 -20 1 -38 -5 l-31 -11 7 38 c13 75 26 113 41 119 12 4 13 8 3 13 -7 5 -9 18 -5 
34 9 35 26 33 26 -3z m-295 -91 c4 -6 11 -8 16 -4 5 3 8 2 7 -3 -1 -4 6 -22 15 -40 21 -39 21 -44 3 -37 -8 3 -31 30 
-51 60 -27 42 -31 53 -16 45 11 -6 23 -16 26 -21z m209 -150 c5 -57 4 -63 -9 -49 -17 17 -31 100 -21 126 11 28 
22 -1 30 -77z m-377 53 c32 -12 76 -17 133 -17 l85 1 -40 -18 c-46 -21 -125 -25 -125 -7 0 6 -3 9 -6 5 -3 -3 
-27 6 -52 20 -72 40 -71 43 5 16z m341 -175 c30 0 92 -21 92 -31 0 -1 -28 -2 -63 -3 -48 0 -82 -9 -152 -38 
-122 -52 -201 -54 -300 -7 -66 30 -87 53 -29 30 16 -6 53 -11 82 -10 35 1 52 -2 52 -10 0 -8 6 -7 18 4 20 18 
61 25 80 14 6 -5 13 -18 13 -30 1 -18 2 -18 6 -4 3 10 0 24 -6 31 -9 11 -5 16 19 24 16 6 30 8 30 5 0 -3 6 0 13 
6 16 13 88 30 100 23 5 -2 25 -4 45 -4z m-424 -23 c6 -16 -19 -20 -51 -8 -16 6 -15 8 7 14 37 10 37 10 44 -6z"/> 
<path d="M370 662 c0 -11 69 -77 74 -71 2 2 -13 21 -35 41 -21 21 -39 34 -39 30z"/> 
<path d="M830 400 l0 -180 90 0 90 0 0 30 c0 30 -1 30 -55 30 l-55 0 0 150 0 150 -35 0 -35 0 0 -180z"/> 
<path d="M1910 400 l0 -180 36 0 35 0 -2 103 c-2 100 -1 102 22 105 37 6 49 -22 49 -120 l0 -88 34 0 34 0 -5 103 
c-7 130 -20 157 -73 157 -21 0 -42 -4 -45 -10 -16 -25 -23 -5 -18 50 l6 60 -37 0 -36 0 0 -180z"/> 
<path d="M1763 515 c5 -30 3 -35 -14 -35 -14 0 -19 -7 -19 -29 0 -20 5 -28 15 -27 12 1 16 -15 18 -79 4 -102 
18 -125 73 -125 38 0 41 2 37 24 -3 13 -14 26 -24 29 -17 4 -19 15 -19 82 0 72 1 77 20 72 17 -4 20 0 20 24 0 22 
-5 29 -20 29 -16 0 -20 7 -20 35 0 34 -1 35 -36 35 -36 0 -37 0 -31 -35z"/> 
<path d="M1066 450 c-47 -56 -47 -144 0 
-200 24 -28 30 -30 95 -30 67 0 69 1 69 25 0 24 -3 25 -53 25 -48 0 -55 3 -65 25 l-12 25 66 0 c48 0 66 4 70 15 10 26 
-6 83 -32 115 -37 43 -101 43 -138 0z m104 -46 c14 -35 15 -34 -30 -34 -41 0 -47 8 -30 41 15 28 49 24 60 -7z"/> 
<path d="M1270 350 l0 -130 35 0 35 0 0 105 0 105 29 0 c37 0 41 -12 41 -121 l0 -89 36 0 36 0 -4 103 c-4 126 -19 
157 -74 157 -19 0 -44 -5 -55 -10 -13 -7 -19 -7 -19 0 0 5 -13 10 -30 10 l-30 0 0 -130z"/> 
<path d="M1532 453 c3 -26 6 -28 46 -25 46 4 72 -10 72 -38 0 -16 -5 -17 -42 -8 -37 8 -44 6 -66 -16 
-31 -30 -34 -96 -7 -126 21 -23 84 -27 103 -8 9 9 12 9 12 0 0 -7 14 -12 33 -12 l32 0 -5 109 c-6 141 -14 151 
-112 151 l-69 0 3 -27z m118 -149 c0 -34 -1 -35 -32 -32 -54 5 -53 68 2 68 28 0 30 -3 30 -36z"/> 
<path d="M2192 458 c-42 -46 -53 -112 -28 -171 24 -58 40 -67 117 -67 67 0 69 1 69 25 0 24 -3 25 -53 25 -48 
0 -55 3 -65 25 l-12 25 64 0 c59 0 64 2 70 23 8 32 -9 85 -36 114 -30 32 -96 32 -126 1z m98 -54 c14 -35 15 
-34 -30 -34 -41 0 -47 8 -30 41 15 28 49 24 60 -7z"/> 
<path d="M2421 454 c-12 -15 -24 -39 -27 -53 -3 -14 -8 -32 -10 -40 -7 -22 16 -95 39 -119 17 
-19 31 -22 89 -22 66 0 68 1 68 25 0 23 -3 25 -48 25 -48 0 -72 12 -72 37 0 9 19 13 66 13 l67 0 
-5 51 c-8 75 -33 103 -95 107 -45 3 -53 0 -72 -24z m99 -43 c17 -33 11 -41 -30 -41 -45 0 -44 -1 -30 
34 11 31 45 35 60 7z"/> 
<path d="M2610 451 c0 -28 0 -28 52 -23 l52 5 -19 -29 c-38 -58 -83 -140 -90 -161 -6 -23 -5 -23 89 -23 
96 0 96 0 96 25 0 23 -3 25 -50 25 -27 0 -50 2 -50 4 0 3 22 42 50 88 70 117 70 118 -40 118 l-90 0 0 -29z"/> 
<path d="M2820 258 c0 -37 1 -38 38 -38 36 0 37 1 36 36 -1 35 -3 37 -38 38 -35 1 -36 0 -36 -36z"/> </g> </svg> 